# xmcd
#
# Track frame offsets:
#        150
#        38112
#        63387
#        90602
#        113152
#        147007
#        173150
#        201457
#        227832
#        260045
#        297220
#
# Disc length: 4376 seconds
#
# Revision: 4
# Processed by: cddbd v1.5.1PL2 Copyright (c) Steve Scherf et al.
# Submitted via: ExactAudioCopy v0.95a3
#
DISCID=a111160b
DTITLE=LTJ Bukem - Earth Volume 4
DYEAR=2000
DGENRE=Drum and Bass
TTITLE0=Flying Fish - The Bloc
TTITLE1=K-Scope - The Setup
TTITLE2=John Beltran feat. Sol Set - Aztec Girl
TTITLE3=Makoto - Extensions Of Life
TTITLE4=Tayla - Timefields
TTITLE5=John Beltran - Seven Miles High
TTITLE6=Makoto - Peace Of Mind
TTITLE7=Big Bud - Blueberry Muffins
TTITLE8=Artemis - Brazilian Sunrise
TTITLE9=Artemis - Astral Sunset
TTITLE10=Lacarno and Burns - Axis
EXTD=
EXTT0=
EXTT1=
EXTT2=
EXTT3=
EXTT4=
EXTT5=
EXTT6=
EXTT7=
EXTT8=
EXTT9=
EXTT10=
PLAYORDER=
